<?xml version="1.0" encoding="utf-8"?>
<!-- Generator: Adobe Illustrator 22.1.0, SVG Export Plug-In . SVG Version: 6.00 Build 0)  -->
<svg version="1.1" id="Layer_1" xmlns="http://www.w3.org/2000/svg" xmlns:xlink="http://www.w3.org/1999/xlink" x="0px" y="0px"
	 viewBox="0 0 401.5 326.3" style="enable-background:new 0 0 401.5 326.3;" xml:space="preserve">
<style type="text/css">
	.st0{fill:#F8B700;}
</style>
<title>logotwitter</title>
<g id="_Group_">
	<g id="_Group_2">
		<path id="_Path_" class="st0" d="M126.3,326.3c151.5,0,234.3-125.5,234.3-234.3c0-3.6-0.1-7.1-0.2-10.6
			c16.1-11.7,30-26.1,41.1-42.6c-15,6.7-31,11.1-47.3,13c17.2-10.3,30.1-26.5,36.2-45.6c-16.2,9.6-33.9,16.4-52.3,20
			c-31.2-33.2-83.4-34.8-116.5-3.6c-21.4,20.1-30.5,50.1-23.8,78.7C131.5,97.8,69.8,66.6,28,15.1C6.1,52.8,17.2,101,53.4,125.1
			c-13.1-0.4-25.9-3.9-37.3-10.3c0,0.4,0,0.7,0,1.1c0,39.2,27.6,73,66.1,80.7c-12.1,3.3-24.9,3.8-37.2,1.4
			c10.8,33.6,41.7,56.6,77,57.2c-29.2,22.9-65.2,35.3-102.3,35.3c-6.6,0-13.1-0.4-19.7-1.1C37.7,313.6,81.6,326.4,126.3,326.3"/>
	</g>
</g>
</svg>
