<svg id="Layer_1" data-name="Layer 1" xmlns="http://www.w3.org/2000/svg" viewBox="0 0 401.45 326.26"><title>logotwitter</title><g id="_Group_" data-name="&lt;Group&gt;"><g id="_Group_2" data-name="&lt;Group&gt;"><path id="_Path_" data-name="&lt;Path&gt;" d="M181.53,419.13c151.5,0,234.34-125.51,234.34-234.34,0-3.57-.07-7.12-.23-10.65a167.64,167.64,0,0,0,41.09-42.65,164.22,164.22,0,0,1-47.3,13A82.64,82.64,0,0,0,445.64,98.9a165.23,165.23,0,0,1-52.3,20A82.43,82.43,0,0,0,253,194,233.83,233.83,0,0,1,83.22,108a82.42,82.42,0,0,0,25.49,110,81.74,81.74,0,0,1-37.3-10.31c0,.35,0,.69,0,1.06a82.39,82.39,0,0,0,66.08,80.74,82.11,82.11,0,0,1-37.2,1.41,82.46,82.46,0,0,0,77,57.21,165.31,165.31,0,0,1-102.3,35.26,167.79,167.79,0,0,1-19.65-1.14,233.21,233.21,0,0,0,126.26,37" transform="translate(-55.27 -92.87)"/></g></g></svg>